# xmcd
#
# Track frame offsets:
#	150
#	17979
#	31565
#	41157
#	58253
#	76679
#	92204
#	102879
#	118210
#	135011
#	149355
#	170427
#
# Disc length: 2562 seconds
#
# Revision: 1
# Processed by: cddbd v1.5.2PL0 Copyright (c) Steve Scherf et al.
# Submitted via: EasyCDDAExtractor 15.3.0.1
#
DISCID=970a000c
DTITLE=Laura Pausini - Laura Navidad
DYEAR=2016
DGENRE=Latin
TTITLE0=It's Beginning To Look A Lot Like Christmas
TTITLE1=Va A Nevar
TTITLE2=Santa Claus Llego A La Ciudad
TTITLE3=Jingle Bell Rock
TTITLE4=Have Yourself A Merry Little Christmas
TTITLE5=Jingle Bells
TTITLE6=Blanca Navidad
TTITLE7=Happy Xmas (War Is Over)
TTITLE8=Feliz Navidad
TTITLE9=Adeste Fideles
TTITLE10=Oh Happy Day
TTITLE11=Noche De Paz
EXTD=
EXTT0=
EXTT1=
EXTT2=
EXTT3=
EXTT4=
EXTT5=
EXTT6=
EXTT7=
EXTT8=
EXTT9=
EXTT10=
EXTT11=
PLAYORDER=
